<mxfile host="app.diagrams.net" agent="Mozilla/5.0 (X11; Linux x86_64) AppleWebKit/537.36 (KHTML, like Gecko) Chrome/130.0.0.0 Safari/537.36" version="28.2.8">
  <diagram name="第 1 页" id="DWz5yP-1nBijKT9mPy6a">
    <mxGraphModel dx="1248" dy="700" grid="1" gridSize="10" guides="1" tooltips="1" connect="1" arrows="1" fold="1" page="1" pageScale="1" pageWidth="827" pageHeight="1169" math="0" shadow="0">
      <root>
        <mxCell id="0" />
        <mxCell id="1" parent="0" />
        <mxCell id="T6u2gqYuI4SV_lQmpp8O-3" value="" style="edgeStyle=orthogonalEdgeStyle;rounded=0;orthogonalLoop=1;jettySize=auto;html=1;" edge="1" parent="1" source="T6u2gqYuI4SV_lQmpp8O-1" target="T6u2gqYuI4SV_lQmpp8O-2">
          <mxGeometry relative="1" as="geometry" />
        </mxCell>
        <mxCell id="T6u2gqYuI4SV_lQmpp8O-1" value="开始（LLL/BKZ）" style="rounded=1;whiteSpace=wrap;html=1;" vertex="1" parent="1">
          <mxGeometry x="300" y="90" width="120" height="60" as="geometry" />
        </mxCell>
        <mxCell id="T6u2gqYuI4SV_lQmpp8O-5" value="" style="edgeStyle=orthogonalEdgeStyle;rounded=0;orthogonalLoop=1;jettySize=auto;html=1;" edge="1" parent="1" source="T6u2gqYuI4SV_lQmpp8O-2" target="T6u2gqYuI4SV_lQmpp8O-4">
          <mxGeometry relative="1" as="geometry" />
        </mxCell>
        <mxCell id="T6u2gqYuI4SV_lQmpp8O-2" value="初始化 格 B" style="rounded=1;whiteSpace=wrap;html=1;" vertex="1" parent="1">
          <mxGeometry x="300" y="180" width="120" height="60" as="geometry" />
        </mxCell>
        <mxCell id="T6u2gqYuI4SV_lQmpp8O-7" value="" style="edgeStyle=orthogonalEdgeStyle;rounded=0;orthogonalLoop=1;jettySize=auto;html=1;" edge="1" parent="1" source="T6u2gqYuI4SV_lQmpp8O-4" target="T6u2gqYuI4SV_lQmpp8O-6">
          <mxGeometry relative="1" as="geometry" />
        </mxCell>
        <mxCell id="T6u2gqYuI4SV_lQmpp8O-4" value="设置滑动窗大小" style="whiteSpace=wrap;html=1;rounded=1;" vertex="1" parent="1">
          <mxGeometry x="300" y="270" width="120" height="60" as="geometry" />
        </mxCell>
        <mxCell id="T6u2gqYuI4SV_lQmpp8O-9" value="" style="edgeStyle=orthogonalEdgeStyle;rounded=0;orthogonalLoop=1;jettySize=auto;html=1;" edge="1" parent="1" source="T6u2gqYuI4SV_lQmpp8O-6" target="T6u2gqYuI4SV_lQmpp8O-8">
          <mxGeometry relative="1" as="geometry" />
        </mxCell>
        <mxCell id="T6u2gqYuI4SV_lQmpp8O-6" value="生成格向量采样池" style="whiteSpace=wrap;html=1;rounded=1;" vertex="1" parent="1">
          <mxGeometry x="300" y="360" width="120" height="60" as="geometry" />
        </mxCell>
        <mxCell id="T6u2gqYuI4SV_lQmpp8O-11" value="" style="edgeStyle=orthogonalEdgeStyle;rounded=0;orthogonalLoop=1;jettySize=auto;html=1;" edge="1" parent="1" source="T6u2gqYuI4SV_lQmpp8O-8" target="T6u2gqYuI4SV_lQmpp8O-10">
          <mxGeometry relative="1" as="geometry" />
        </mxCell>
        <mxCell id="T6u2gqYuI4SV_lQmpp8O-8" value="生成筛选内核&lt;div&gt;（成对约减）&lt;/div&gt;" style="whiteSpace=wrap;html=1;rounded=1;" vertex="1" parent="1">
          <mxGeometry x="300" y="450" width="120" height="60" as="geometry" />
        </mxCell>
        <mxCell id="T6u2gqYuI4SV_lQmpp8O-13" value="" style="edgeStyle=orthogonalEdgeStyle;rounded=0;orthogonalLoop=1;jettySize=auto;html=1;" edge="1" parent="1" source="T6u2gqYuI4SV_lQmpp8O-10" target="T6u2gqYuI4SV_lQmpp8O-12">
          <mxGeometry relative="1" as="geometry" />
        </mxCell>
        <mxCell id="T6u2gqYuI4SV_lQmpp8O-10" value="更新滑动窗位置&lt;br&gt;&lt;div&gt;（滑动+插入向量）&lt;/div&gt;" style="whiteSpace=wrap;html=1;rounded=1;" vertex="1" parent="1">
          <mxGeometry x="300" y="550" width="120" height="60" as="geometry" />
        </mxCell>
        <mxCell id="T6u2gqYuI4SV_lQmpp8O-15" value="" style="edgeStyle=orthogonalEdgeStyle;rounded=0;orthogonalLoop=1;jettySize=auto;html=1;" edge="1" parent="1" source="T6u2gqYuI4SV_lQmpp8O-12" target="T6u2gqYuI4SV_lQmpp8O-14">
          <mxGeometry relative="1" as="geometry" />
        </mxCell>
        <mxCell id="T6u2gqYuI4SV_lQmpp8O-12" value="剪枝 /更新样本/ 检查局部最短向量" style="whiteSpace=wrap;html=1;rounded=1;" vertex="1" parent="1">
          <mxGeometry x="300" y="660" width="120" height="60" as="geometry" />
        </mxCell>
        <mxCell id="T6u2gqYuI4SV_lQmpp8O-19" value="" style="edgeStyle=orthogonalEdgeStyle;rounded=0;orthogonalLoop=1;jettySize=auto;html=1;" edge="1" parent="1" source="T6u2gqYuI4SV_lQmpp8O-14" target="T6u2gqYuI4SV_lQmpp8O-18">
          <mxGeometry relative="1" as="geometry" />
        </mxCell>
        <mxCell id="T6u2gqYuI4SV_lQmpp8O-21" value="" style="edgeStyle=orthogonalEdgeStyle;rounded=0;orthogonalLoop=1;jettySize=auto;html=1;exitX=0;exitY=0.5;exitDx=0;exitDy=0;entryX=0;entryY=0.5;entryDx=0;entryDy=0;" edge="1" parent="1" source="T6u2gqYuI4SV_lQmpp8O-14" target="T6u2gqYuI4SV_lQmpp8O-8">
          <mxGeometry relative="1" as="geometry">
            <mxPoint x="290" y="780" as="sourcePoint" />
            <mxPoint x="290" y="480" as="targetPoint" />
            <Array as="points">
              <mxPoint x="140" y="780" />
              <mxPoint x="140" y="480" />
            </Array>
          </mxGeometry>
        </mxCell>
        <mxCell id="T6u2gqYuI4SV_lQmpp8O-14" value="结果收敛" style="rounded=1;whiteSpace=wrap;html=1;" vertex="1" parent="1">
          <mxGeometry x="300" y="750" width="120" height="60" as="geometry" />
        </mxCell>
        <mxCell id="T6u2gqYuI4SV_lQmpp8O-18" value="结束" style="whiteSpace=wrap;html=1;rounded=1;" vertex="1" parent="1">
          <mxGeometry x="300" y="850" width="120" height="60" as="geometry" />
        </mxCell>
      </root>
    </mxGraphModel>
  </diagram>
</mxfile>
